<svg width="24" height="24" viewBox="0 0 24 24" fill="none" xmlns="http://www.w3.org/2000/svg">
<path d="M17 2H7C4.23858 2 2 4.23858 2 7V17C2 19.7614 4.23858 22 7 22H17C19.7614 22 22 19.7614 22 17V7C22 4.23858 19.7614 2 17 2Z" stroke="#34613E" stroke-width="2" stroke-linecap="round" stroke-linejoin="round"/>
<path d="M16 12.4133C16.1234 13.2455 15.9813 14.0955 15.5938 14.8423C15.2063 15.5891 14.5932 16.1947 13.8416 16.5729C13.0901 16.9512 12.2385 17.0829 11.4078 16.9492C10.5771 16.8155 9.80977 16.4234 9.21485 15.8284C8.61993 15.2335 8.22774 14.4661 8.09408 13.6355C7.96042 12.8048 8.09208 11.9532 8.47034 11.2016C8.8486 10.4501 9.4542 9.83701 10.201 9.44951C10.9478 9.06201 11.7978 8.91986 12.63 9.04327C13.4789 9.16915 14.2649 9.56473 14.8717 10.1716C15.4785 10.7784 15.8741 11.5643 16 12.4133Z" stroke="#34613E" stroke-width="2" stroke-linecap="round" stroke-linejoin="round"/>
<path d="M17.5 6.5H17.51" stroke="#34613E" stroke-width="2" stroke-linecap="round" stroke-linejoin="round"/>
</svg>
