<svg width="127" height="40" viewBox="0 0 127 40" fill="none" xmlns="http://www.w3.org/2000/svg">
<path d="M76 0H127V30C127 35.5228 122.523 40 117 40H76V0Z" fill="#64AE74"/>
<path d="M0.25 10C0.25 4.61522 4.61522 0.25 10 0.25H76.75V39.75H0.25V10Z" fill="white" stroke="#64AE74" stroke-width="0.5"/>
<path d="M22.502 22.2891H16.5449L15.207 26H13.2734L18.7031 11.7812H20.3438L25.7832 26H23.8594L22.502 22.2891ZM17.1113 20.7461H21.9453L19.5234 14.0957L17.1113 20.7461ZM30.3633 21.1074L29.2305 22.2891V26H27.4238V11H29.2305V20.0723L30.1973 18.9102L33.4883 15.4336H35.6855L31.5742 19.8477L36.1641 26H34.0449L30.3633 21.1074ZM44.0742 24.9551C43.3711 25.7819 42.3392 26.1953 40.9785 26.1953C39.8522 26.1953 38.9928 25.8698 38.4004 25.2188C37.8145 24.5612 37.5182 23.5911 37.5117 22.3086V15.4336H39.3184V22.2598C39.3184 23.8613 39.9694 24.6621 41.2715 24.6621C42.6517 24.6621 43.5697 24.1478 44.0254 23.1191V15.4336H45.832V26H44.1133L44.0742 24.9551ZM55.1094 26C55.0052 25.7917 54.9206 25.4206 54.8555 24.8867C54.0156 25.7591 53.013 26.1953 51.8477 26.1953C50.806 26.1953 49.9499 25.9023 49.2793 25.3164C48.6152 24.724 48.2832 23.9753 48.2832 23.0703C48.2832 21.9701 48.6999 21.1172 49.5332 20.5117C50.373 19.8997 51.5514 19.5938 53.0684 19.5938H54.8262V18.7637C54.8262 18.1322 54.6374 17.6309 54.2598 17.2598C53.8822 16.8822 53.3255 16.6934 52.5898 16.6934C51.9453 16.6934 51.4049 16.8561 50.9688 17.1816C50.5326 17.5072 50.3145 17.901 50.3145 18.3633H48.498C48.498 17.8359 48.6836 17.3281 49.0547 16.8398C49.4323 16.3451 49.9401 15.9544 50.5781 15.668C51.2227 15.3815 51.929 15.2383 52.6973 15.2383C53.9147 15.2383 54.8685 15.5443 55.5586 16.1562C56.2487 16.7617 56.6068 17.5983 56.6328 18.666V23.5293C56.6328 24.4993 56.7565 25.2708 57.0039 25.8438V26H55.1094ZM52.1113 24.623C52.6777 24.623 53.2148 24.4766 53.7227 24.1836C54.2305 23.8906 54.5983 23.5098 54.8262 23.041V20.873H53.4102C51.1966 20.873 50.0898 21.5208 50.0898 22.8164C50.0898 23.3828 50.2786 23.8255 50.6562 24.1445C51.0339 24.4635 51.5189 24.623 52.1113 24.623ZM60.3535 26V16.8301H58.6836V15.4336H60.3535V14.3496C60.3535 13.2168 60.6562 12.3411 61.2617 11.7227C61.8672 11.1042 62.7233 10.7949 63.8301 10.7949C64.2467 10.7949 64.6602 10.8503 65.0703 10.9609L64.9727 12.4258C64.6667 12.3672 64.3411 12.3379 63.9961 12.3379C63.4102 12.3379 62.9577 12.5104 62.6387 12.8555C62.3197 13.194 62.1602 13.6823 62.1602 14.3203V15.4336H64.416V16.8301H62.1602V26H60.3535ZM72.9414 24.9551C72.2383 25.7819 71.2064 26.1953 69.8457 26.1953C68.7194 26.1953 67.86 25.8698 67.2676 25.2188C66.6816 24.5612 66.3854 23.5911 66.3789 22.3086V15.4336H68.1855V22.2598C68.1855 23.8613 68.8366 24.6621 70.1387 24.6621C71.5189 24.6621 72.4368 24.1478 72.8926 23.1191V15.4336H74.6992V26H72.9805L72.9414 24.9551Z" fill="#64AE74"/>
<path d="M79.6211 24.4668H86.3594V26H77.7363V11.7812H79.6211V24.4668ZM90.1777 26H88.3711V15.4336H90.1777V26ZM88.2246 12.6309C88.2246 12.3379 88.3125 12.0905 88.4883 11.8887C88.6706 11.6868 88.9375 11.5859 89.2891 11.5859C89.6406 11.5859 89.9076 11.6868 90.0898 11.8887C90.2721 12.0905 90.3633 12.3379 90.3633 12.6309C90.3633 12.9238 90.2721 13.168 90.0898 13.3633C89.9076 13.5586 89.6406 13.6562 89.2891 13.6562C88.9375 13.6562 88.6706 13.5586 88.4883 13.3633C88.3125 13.168 88.2246 12.9238 88.2246 12.6309ZM94.7871 15.4336L94.8457 16.7617C95.653 15.7461 96.7077 15.2383 98.0098 15.2383C100.243 15.2383 101.369 16.498 101.389 19.0176V26H99.582V19.0078C99.5755 18.2461 99.3997 17.6829 99.0547 17.3184C98.7161 16.9538 98.1855 16.7715 97.4629 16.7715C96.877 16.7715 96.3626 16.9277 95.9199 17.2402C95.4772 17.5527 95.1322 17.9629 94.8848 18.4707V26H93.0781V15.4336H94.7871ZM107.062 21.1074L105.93 22.2891V26H104.123V11H105.93V20.0723L106.896 18.9102L110.188 15.4336H112.385L108.273 19.8477L112.863 26H110.744L107.062 21.1074Z" fill="#FAFAFA"/>
</svg>
