<svg width="302" height="267" viewBox="0 0 302 267" fill="none" xmlns="http://www.w3.org/2000/svg">
<path d="M217.523 30.8887C233.609 36.8252 222.36 68.7652 238.255 85.6172C253.958 102.469 296.804 104.233 300.634 124.724C304.273 145.214 292.4 168.003 274.973 182.174C257.547 196.345 237.056 189.199 217.523 205.668C197.799 221.945 179.223 262.029 160.648 265.668C142.264 269.306 121.582 249.39 108.177 229.474C94.772 209.367 108.535 184.427 103.173 166.617C98.0025 148.808 73.5155 138.129 62.6 116.298C51.6845 94.4667 34.0665 66.3162 36.173 42.9532C38.471 19.5902 60.1105 1.0147 84.431 0.0571958C108.751 -1.0918 135.753 15.3772 158.924 21.8882C182.287 28.3992 201.629 24.9522 217.523 30.8887Z" fill="#64AE74" fill-opacity="0.6"/>
<path d="M252.87 142.778H249.778L244.777 99.2707H247.869L252.87 142.778Z" fill="#FF6E00"/>
<path d="M248.225 102.371L245.489 105.461L245.313 103.934L248.05 100.844L248.225 102.371Z" fill="white"/>
<path d="M248.667 106.219L245.931 109.309L245.755 107.782L248.492 104.692L248.667 106.219Z" fill="white"/>
<path d="M249.11 110.067L246.373 113.157L246.198 111.629L248.935 108.539L249.11 110.067Z" fill="white"/>
<path d="M249.552 113.915L246.815 117.005L246.64 115.477L249.376 112.387L249.552 113.915Z" fill="white"/>
<path d="M249.994 117.763L247.258 120.852L247.082 119.325L249.819 116.235L249.994 117.763Z" fill="white"/>
<path d="M250.437 121.61L247.7 124.7L247.524 123.173L250.261 120.083L250.437 121.61Z" fill="white"/>
<path d="M250.879 125.458L248.142 128.548L247.967 127.021L250.704 123.931L250.879 125.458Z" fill="white"/>
<path d="M251.321 129.306L248.584 132.396L248.409 130.869L251.145 127.779L251.321 129.306Z" fill="white"/>
<path d="M251.764 133.153L249.027 136.243L248.851 134.716L251.588 131.626L251.764 133.153Z" fill="white"/>
<path d="M252.205 137.001L249.469 140.091L249.293 138.564L252.03 135.474L252.205 137.001Z" fill="white"/>
<path d="M268.329 142.778L263.22 187.578C262.936 190.052 260.842 191.919 258.352 191.919H241.672C239.182 191.919 237.088 190.052 236.804 187.578L231.665 142.778H268.329Z" fill="#A9D8D5"/>
<path d="M252.648 140.849L250.939 142.778H249.778L249.736 142.411L252.473 139.322L252.648 140.849Z" fill="white"/>
<path d="M269.201 135.547L263.22 187.578C262.936 190.052 260.842 191.919 258.352 191.919H241.672C239.182 191.919 237.088 190.052 236.803 187.578L230.823 135.547H269.201Z" stroke="#A9D8D5" stroke-width="0.301886" stroke-miterlimit="10"/>
<path d="M245.654 162.673L261.579 151.248C263.621 155.702 262.454 160.99 258.528 163.806C254.603 166.622 249.219 166.034 245.654 162.673Z" fill="#F1B104"/>
<path d="M255.8 163.774L254.383 158.005L259.388 161.191C258.931 161.769 258.389 162.292 257.764 162.741C257.146 163.184 256.485 163.527 255.8 163.774Z" fill="#FF6E00"/>
<path d="M254.996 157.195L261.174 155.823C261.194 157.384 260.806 158.916 260.032 160.244L254.996 157.195Z" fill="#FF6E00"/>
<path d="M250.133 163.761L253.429 158.319L254.709 164.082C253.196 164.398 251.613 164.279 250.133 163.761Z" fill="#FF6E00"/>
<path d="M248.8 163.168C248.121 162.797 247.478 162.334 246.893 161.783L252.4 157.832L248.8 163.168Z" fill="#FF6E00"/>
<path d="M254.775 156.128L260.339 152.137C260.677 152.874 260.912 153.639 261.043 154.41L254.775 156.128Z" fill="#FF6E00"/>
<path d="M268.273 132.573H231.75C230.108 132.573 228.777 133.904 228.777 135.547H271.246C271.246 133.904 269.915 132.573 268.273 132.573Z" stroke="#573240" stroke-width="0.301886" stroke-miterlimit="10" stroke-linecap="round"/>
<path d="M268.358 132.573C266.59 125.035 259.865 119.705 252.123 119.705H247.9C240.158 119.705 233.433 125.035 231.665 132.573H268.358V132.573Z" stroke="#573240" stroke-width="0.301886" stroke-miterlimit="10" stroke-linecap="round"/>
<path d="M255.517 188.773H249.156C248.361 188.773 247.716 188.128 247.716 187.333V180.972C247.716 180.177 248.361 179.532 249.156 179.532H255.517C256.312 179.532 256.957 180.177 256.957 180.972V187.333C256.957 188.128 256.312 188.773 255.517 188.773Z" fill="#E0F1F0"/>
<path d="M260.618 177.321H255.611C254.816 177.321 254.172 176.676 254.172 175.881V170.875C254.172 170.08 254.816 169.436 255.611 169.436H260.618C261.413 169.436 262.057 170.08 262.057 170.875V175.881C262.057 176.676 261.413 177.321 260.618 177.321Z" fill="#E0F1F0"/>
<path d="M243.616 181.169H238.61C237.815 181.169 237.17 180.525 237.17 179.73V174.723C237.17 173.928 237.815 173.284 238.61 173.284H243.616C244.411 173.284 245.056 173.928 245.056 174.723V179.73C245.056 180.525 244.411 181.169 243.616 181.169Z" fill="#E0F1F0"/>
<path d="M246.993 157.887C247.464 157.887 247.846 157.505 247.846 157.034C247.846 156.562 247.464 156.18 246.993 156.18C246.522 156.18 246.14 156.562 246.14 157.034C246.14 157.505 246.522 157.887 246.993 157.887Z" stroke="white" stroke-width="0.301886" stroke-miterlimit="10"/>
<path d="M242.504 170.372C242.975 170.372 243.357 169.99 243.357 169.519C243.357 169.047 242.975 168.665 242.504 168.665C242.032 168.665 241.65 169.047 241.65 169.519C241.65 169.99 242.032 170.372 242.504 170.372Z" stroke="white" stroke-width="0.301886" stroke-miterlimit="10"/>
<path d="M240.443 150.864C241.11 150.864 241.651 150.323 241.651 149.656C241.651 148.989 241.11 148.448 240.443 148.448C239.776 148.448 239.236 148.989 239.236 149.656C239.236 150.323 239.776 150.864 240.443 150.864Z" stroke="white" stroke-width="0.301886" stroke-miterlimit="10"/>
<path d="M260.983 163.304C261.65 163.304 262.191 162.764 262.191 162.097C262.191 161.43 261.65 160.889 260.983 160.889C260.316 160.889 259.776 161.43 259.776 162.097C259.776 162.764 260.316 163.304 260.983 163.304Z" stroke="white" stroke-width="0.301886" stroke-miterlimit="10"/>
<path d="M251.179 170.907C251.562 170.907 251.873 170.597 251.873 170.213C251.873 169.83 251.562 169.519 251.179 169.519C250.795 169.519 250.484 169.83 250.484 170.213C250.484 170.597 250.795 170.907 251.179 170.907Z" stroke="white" stroke-width="0.301886" stroke-miterlimit="10"/>
<path d="M262.659 164.98C262.909 164.98 263.112 164.778 263.112 164.528C263.112 164.278 262.909 164.075 262.659 164.075C262.409 164.075 262.206 164.278 262.206 164.528C262.206 164.778 262.409 164.98 262.659 164.98Z" stroke="white" stroke-width="0.301886" stroke-miterlimit="10"/>
<path d="M257.992 150.084C258.408 150.084 258.746 149.746 258.746 149.329C258.746 148.912 258.408 148.574 257.992 148.574C257.575 148.574 257.237 148.912 257.237 149.329C257.237 149.746 257.575 150.084 257.992 150.084Z" stroke="white" stroke-width="0.301886" stroke-miterlimit="10"/>
<path d="M238.162 152.622C238.412 152.622 238.614 152.42 238.614 152.17C238.614 151.92 238.412 151.717 238.162 151.717C237.912 151.717 237.709 151.92 237.709 152.17C237.709 152.42 237.912 152.622 238.162 152.622Z" stroke="white" stroke-width="0.301886" stroke-miterlimit="10"/>
<path d="M238.615 166.73C238.865 166.73 239.067 166.527 239.067 166.277C239.067 166.027 238.865 165.824 238.615 165.824C238.364 165.824 238.162 166.027 238.162 166.277C238.162 166.527 238.364 166.73 238.615 166.73Z" stroke="white" stroke-width="0.301886" stroke-miterlimit="10"/>
<path d="M180.664 76.2419V86.8664H176.01V76.0928H153.252V86.8664H148.599V76.2419L153.439 71.4009H175.823L180.664 76.2419Z" fill="#573240"/>
<path d="M178.793 86.8668V76.2417L173.952 71.4006H151.568L146.727 76.2417V86.8668H128.108L116.033 191.919H197.222V86.8668H178.793ZM174.139 86.8668H151.381V76.0925H174.139V86.8668Z" fill="#64AE74"/>
<path d="M211.772 191.919H197.221V86.8664H199.697L211.772 191.919Z" fill="#573240"/>
<path d="M176.154 121.621C176.154 129.543 171.262 136.262 164.483 138.618V125.739C164.483 124.569 165.062 123.471 166.035 122.731C167.059 121.954 167.736 120.6 167.736 119.058C167.736 116.645 166.077 114.692 164.031 114.692C161.985 114.692 160.326 116.645 160.326 119.058C160.326 120.6 161.003 121.954 162.026 122.731C163 123.471 163.579 124.569 163.579 125.739V138.904C162.163 139.306 160.676 139.519 159.14 139.519C157.616 139.519 156.138 139.309 154.732 138.913V127.449C154.732 126.279 155.311 125.182 156.285 124.442C156.853 124.01 157.316 123.399 157.614 122.676C157.852 122.1 157.985 121.453 157.985 120.769V115.144C157.985 114.894 157.783 114.692 157.533 114.692H157.533C157.283 114.692 157.08 114.894 157.08 115.144V121.243C157.08 121.567 156.949 121.86 156.737 122.073C156.524 122.285 156.231 122.417 155.907 122.417C155.258 122.417 154.732 121.891 154.732 121.243V115.144C154.732 115.019 154.682 114.906 154.6 114.824C154.518 114.742 154.405 114.692 154.28 114.692C154.03 114.692 153.828 114.894 153.828 115.144V121.243C153.828 121.891 153.303 122.417 152.654 122.417H152.653C152.005 122.417 151.479 121.891 151.479 121.243V115.144C151.479 115.019 151.428 114.906 151.347 114.824C151.265 114.742 151.152 114.692 151.027 114.692C150.777 114.692 150.575 114.894 150.575 115.144V120.769C150.575 121.453 150.708 122.1 150.946 122.676C151.244 123.399 151.706 124.01 152.275 124.442C153.249 125.182 153.828 126.279 153.828 127.449V138.629C147.033 136.282 142.127 129.554 142.127 121.621C142.127 111.736 149.744 103.722 159.14 103.722C168.537 103.722 176.154 111.736 176.154 121.621Z" fill="white"/>
<path d="M146.727 76.1815H178.792" stroke="#573240" stroke-width="0.301886" stroke-miterlimit="10" stroke-linecap="round"/>
<path d="M219.473 173.669L212.917 160.502C211.385 157.424 208.243 155.479 204.805 155.479H162.198C158.76 155.479 155.618 157.424 154.086 160.502L147.53 173.669H219.473Z" fill="#F1B104" stroke="#573240" stroke-width="0.301886" stroke-miterlimit="10" stroke-linecap="round"/>
<path d="M206.968 177.804C203.572 181.428 199.184 182.835 195.977 179.829C192.769 176.824 193.886 172.354 197.281 168.729C200.677 165.105 206.19 163.566 208.864 166.072C211.539 168.578 210.363 174.18 206.968 177.804Z" fill="white"/>
<path d="M205.247 174.94C205.688 172.686 204.219 170.501 201.965 170.06C199.711 169.618 197.526 171.088 197.084 173.342C196.643 175.596 198.112 177.781 200.366 178.222C202.62 178.664 204.805 177.194 205.247 174.94Z" fill="#F1B104"/>
<path d="M244.923 170.613C246.129 174.452 245.374 178.109 241.977 179.176C238.579 180.244 235.869 177.676 234.663 173.837C233.456 169.998 234.565 165.495 237.398 164.605C240.232 163.714 243.716 166.774 244.923 170.613Z" fill="white"/>
<path d="M242.413 175.621C243.729 174.305 243.729 172.171 242.413 170.855C241.097 169.539 238.963 169.539 237.648 170.855C236.332 172.171 236.332 174.305 237.648 175.621C238.963 176.937 241.097 176.937 242.413 175.621Z" fill="#F1B104"/>
<path d="M179.578 178.361L164.903 170.27C167.36 167.474 171.698 166.744 175.315 168.739C178.932 170.733 180.631 174.79 179.578 178.361Z" fill="#FF6E00"/>
<path d="M174.113 172.323C173.857 172.787 172.704 173.475 172.704 173.475C172.704 173.475 172.67 172.133 172.926 171.669C173.182 171.204 173.655 170.974 173.983 171.155C174.311 171.336 174.369 171.859 174.113 172.323Z" stroke="#573240" stroke-width="0.241509" stroke-miterlimit="10" stroke-linecap="round" stroke-linejoin="round"/>
<path d="M175.603 174.69C175.077 174.757 173.841 174.232 173.841 174.232C173.841 174.232 174.905 173.413 175.431 173.346C175.957 173.278 176.422 173.525 176.469 173.896C176.517 174.268 176.129 174.623 175.603 174.69Z" stroke="#573240" stroke-width="0.241509" stroke-miterlimit="10" stroke-linecap="round" stroke-linejoin="round"/>
<path d="M170.129 171.672C170.353 172.153 171.457 172.917 171.457 172.917C171.457 172.917 171.581 171.58 171.357 171.099C171.133 170.619 170.677 170.357 170.337 170.516C169.998 170.674 169.905 171.191 170.129 171.672Z" stroke="#573240" stroke-width="0.241509" stroke-miterlimit="10" stroke-linecap="round" stroke-linejoin="round"/>
<path d="M219.624 175.562L231.788 165.161C233.443 168.338 232.623 172.491 229.624 175.055C226.626 177.619 222.442 177.744 219.624 175.562Z" fill="#FF6E00"/>
<path d="M226.844 172.734C226.518 172.343 226.296 171.068 226.296 171.068C226.296 171.068 227.502 171.502 227.828 171.893C228.154 172.284 228.198 172.789 227.927 173.021C227.655 173.254 227.17 173.125 226.844 172.734Z" stroke="#573240" stroke-width="0.241509" stroke-miterlimit="10" stroke-linecap="round" stroke-linejoin="round"/>
<path d="M224.234 173.256C224.352 172.76 225.238 171.83 225.238 171.83C225.238 171.83 225.606 173.07 225.488 173.567C225.369 174.063 224.992 174.396 224.646 174.31C224.3 174.224 224.115 173.752 224.234 173.256Z" stroke="#573240" stroke-width="0.241509" stroke-miterlimit="10" stroke-linecap="round" stroke-linejoin="round"/>
<path d="M228.772 169.376C228.269 169.411 227.215 170.14 227.215 170.14C227.215 170.14 228.362 170.714 228.865 170.679C229.368 170.644 229.755 170.323 229.73 169.964C229.704 169.604 229.275 169.341 228.772 169.376Z" stroke="#573240" stroke-width="0.241509" stroke-miterlimit="10" stroke-linecap="round" stroke-linejoin="round"/>
<path d="M198.411 175.789C198.411 175.789 193.743 173.649 193.956 167.316C194.169 160.982 199.828 158.96 200.886 160.94C201.581 162.242 200.765 163.86 198.499 164.697C195.933 165.645 194.406 166.437 194.777 169.456C195.112 172.183 196.375 174.246 198.411 175.789Z" fill="#A9D8D5"/>
<path d="M198.411 175.789C198.411 175.789 193.036 172.157 195.031 166.238C196.691 161.311 199.99 161.744 199.99 161.744" stroke="#573240" stroke-width="0.241509" stroke-miterlimit="10" stroke-linecap="round" stroke-linejoin="round"/>
<path d="M195.886 164.353C196.232 163.864 196.541 163.05 196.378 162.088" stroke="#573240" stroke-width="0.241509" stroke-miterlimit="10" stroke-linecap="round" stroke-linejoin="round"/>
<path d="M187.541 177.782C190.273 177.782 192.488 175.567 192.488 172.835C192.488 170.103 190.273 167.888 187.541 167.888C184.809 167.888 182.595 170.103 182.595 172.835C182.595 175.567 184.809 177.782 187.541 177.782Z" fill="#A9D8D5"/>
<path d="M188.282 170.937C188.234 171.303 187.661 172.042 187.661 172.042C187.661 172.042 187.298 171.18 187.346 170.814C187.394 170.448 187.642 170.179 187.901 170.212C188.159 170.246 188.33 170.571 188.282 170.937Z" stroke="#573240" stroke-width="0.241509" stroke-miterlimit="10" stroke-linecap="round" stroke-linejoin="round"/>
<path d="M186.824 174.798C186.872 174.432 187.445 173.693 187.445 173.693C187.445 173.693 187.808 174.555 187.76 174.921C187.712 175.287 187.463 175.557 187.205 175.523C186.946 175.489 186.776 175.164 186.824 174.798Z" stroke="#573240" stroke-width="0.241509" stroke-miterlimit="10" stroke-linecap="round" stroke-linejoin="round"/>
<path d="M185.622 172.138C185.988 172.186 186.727 172.759 186.727 172.759C186.727 172.759 185.865 173.122 185.499 173.074C185.133 173.026 184.864 172.778 184.898 172.52C184.931 172.261 185.256 172.09 185.622 172.138Z" stroke="#573240" stroke-width="0.241509" stroke-miterlimit="10" stroke-linecap="round" stroke-linejoin="round"/>
<path d="M189.483 173.597C189.117 173.549 188.378 172.976 188.378 172.976C188.378 172.976 189.24 172.613 189.606 172.661C189.972 172.709 190.242 172.957 190.208 173.215C190.174 173.474 189.85 173.645 189.483 173.597Z" stroke="#573240" stroke-width="0.241509" stroke-miterlimit="10" stroke-linecap="round" stroke-linejoin="round"/>
<path d="M154.316 176.92C155.939 176.92 157.254 175.605 157.254 173.982C157.254 172.359 155.939 171.043 154.316 171.043C152.693 171.043 151.377 172.359 151.377 173.982C151.377 175.605 152.693 176.92 154.316 176.92Z" fill="white"/>
<path d="M165.008 173.678C163.802 173.637 162.461 173.28 160.96 172.756C154.975 170.665 155.011 165.233 156.924 164.775C158.422 164.416 159.547 165.834 159.67 168.249C159.811 170.983 160.313 172.917 163.307 173.463C163.876 173.566 164.445 173.64 165.008 173.678Z" fill="#A9D8D5"/>
<path d="M165.853 173.69C164.152 173.784 162.192 173.438 160.274 172.092C157.122 169.879 157.251 165.816 157.251 165.816" stroke="#573240" stroke-width="0.241509" stroke-miterlimit="10" stroke-linecap="round" stroke-linejoin="round"/>
<path d="M165.44 173.616C165.662 173.652 162.075 173.325 161.095 170.202C160.366 167.877 162.172 167.338 162.896 168.07C163.703 168.885 163.075 171.121 164.1 172.604C164.397 173.034 164.356 173.438 165.44 173.616Z" fill="#A9D8D5"/>
<path d="M162.241 168.758C162.241 168.758 161.713 172.704 165.853 173.69" stroke="#573240" stroke-width="0.241509" stroke-miterlimit="10" stroke-linecap="round" stroke-linejoin="round"/>
<path d="M216.545 173.768C216.283 173.822 216.052 173.81 215.846 173.749C217.783 172.873 218.432 170.97 218.894 168.486C219.436 165.57 221.083 164.019 222.916 164.686C225.258 165.538 224.435 172.148 216.545 173.768Z" fill="#A9D8D5"/>
<path d="M209.34 174.643C211.496 174.853 215.306 174.54 217.822 172.999C221.958 170.466 221.964 165.922 221.964 165.922" stroke="#573240" stroke-width="0.241509" stroke-miterlimit="10" stroke-linecap="round" stroke-linejoin="round"/>
<path d="M209.868 174.576C209.584 174.608 214.163 174.408 215.589 170.639C216.651 167.833 214.387 167.073 213.424 167.928C212.351 168.881 213.019 171.654 211.631 173.412C211.228 173.922 211.256 174.419 209.868 174.576Z" fill="#A9D8D5"/>
<path d="M214.217 168.807C214.217 168.807 214.658 173.668 209.339 174.643" stroke="#573240" stroke-width="0.241509" stroke-miterlimit="10" stroke-linecap="round" stroke-linejoin="round"/>
<path d="M248.514 173.669L241.959 160.502C240.426 157.424 237.285 155.479 233.847 155.479H204.806C208.243 155.479 211.385 157.424 212.917 160.502L219.473 173.669H248.514Z" stroke="#573240" stroke-width="0.301886" stroke-miterlimit="10" stroke-linecap="round"/>
<path d="M219.473 173.669L212.917 160.502C211.385 157.424 208.243 155.479 204.805 155.479H162.198C158.76 155.479 155.618 157.424 154.086 160.502L147.53 173.669H219.473Z" stroke="#573240" stroke-width="0.301886" stroke-miterlimit="10" stroke-linecap="round"/>
<path d="M191.615 155.479H170.735V165.498H191.615V155.479Z" fill="#573240"/>
<path d="M219.473 173.729L212.917 186.897C211.385 189.974 208.243 191.919 204.806 191.919H162.197C158.76 191.919 155.618 189.974 154.086 186.897L147.53 173.729H219.473Z" fill="white"/>
<path d="M248.514 173.669L241.958 186.836C240.426 189.913 237.284 191.859 233.847 191.859H204.805C208.243 191.859 211.384 189.913 212.917 186.836L219.473 173.669H248.514Z" fill="white"/>
<path d="M248.514 173.669L241.958 186.836C240.426 189.913 237.284 191.858 233.846 191.858H162.197C158.76 191.858 155.618 189.913 154.086 186.836L147.53 173.669H248.514Z" fill="white"/>
<path d="M241.959 186.836C240.426 189.913 237.285 191.859 233.847 191.859H204.805C208.243 191.859 211.385 189.913 212.917 186.836L219.473 173.669" stroke="#573240" stroke-width="0.301886" stroke-miterlimit="10" stroke-linecap="round"/>
<path d="M219.473 173.669L212.917 186.836C211.385 189.913 208.243 191.859 204.805 191.859H160.387" stroke="#573240" stroke-width="0.301886" stroke-miterlimit="10" stroke-linecap="round"/>
<path d="M145.456 173.729H250.589" stroke="#573240" stroke-width="0.301886" stroke-miterlimit="10" stroke-linecap="round"/>
<path d="M183.021 161.965H181.224V160.168C181.224 158.303 182.736 156.791 184.601 156.791H186.398V158.588C186.398 160.453 184.886 161.965 183.021 161.965Z" stroke="#A9D8D5" stroke-width="0.241509" stroke-miterlimit="10"/>
<path d="M186.398 156.791L180.035 163.154" stroke="#A9D8D5" stroke-width="0.241509" stroke-miterlimit="10"/>
<path d="M184.47 156.851V158.718H186.338" stroke="#A9D8D5" stroke-width="0.241509" stroke-miterlimit="10"/>
<path d="M182.699 157.406V160.49H185.782" stroke="#A9D8D5" stroke-width="0.241509" stroke-miterlimit="10"/>
<path d="M179.704 162.095H180.175V161.623C180.175 159.758 178.663 158.246 176.798 158.246H176.326V158.718C176.326 160.583 177.839 162.095 179.704 162.095Z" stroke="#A9D8D5" stroke-width="0.241509" stroke-miterlimit="10"/>
<path d="M176.327 158.249L180.635 162.557" stroke="#A9D8D5" stroke-width="0.241509" stroke-miterlimit="10"/>
<path d="M178.776 158.885V160.696H176.965" stroke="#A9D8D5" stroke-width="0.241509" stroke-miterlimit="10"/>
<path d="M226.965 141.888L222.329 151.202C221.072 153.726 218.495 155.321 215.676 155.321H203.383C206.203 155.321 208.78 153.726 210.036 151.202L214.673 141.888H226.965Z" fill="#573240"/>
<path d="M214.673 141.888L214.18 142.879L210.036 151.202C208.779 153.726 206.203 155.321 203.383 155.321H185.77C182.95 155.321 180.374 153.726 179.117 151.202L174.973 142.879L174.48 141.888H214.673Z" fill="#FF6E00"/>
<path d="M214.673 141.888L213.948 143.359H175.224L174.48 141.888H214.673Z" fill="#573240"/>
<path d="M228.703 141.888L223.129 130.694C221.827 128.078 219.156 126.424 216.233 126.424H203.469C206.392 126.424 209.063 128.078 210.366 130.694L215.939 141.888H228.703Z" fill="#FCD4D0"/>
<path d="M215.939 141.888L210.366 130.694C209.063 128.078 206.392 126.424 203.47 126.424H185.212C182.289 126.424 179.619 128.078 178.316 130.694L172.743 141.888H215.939Z" fill="white"/>
<path d="M116.543 130.926L112.433 166.678H56.4639L60.6794 130H115.717C116.213 130 116.599 130.433 116.543 130.926Z" fill="#64AE74"/>
<path d="M108.094 130C107.43 130 106.871 130.498 106.795 131.158L106.371 134.852C106.039 137.735 103.599 139.912 100.697 139.912H56.2249C52.8122 139.912 50.1612 136.938 50.5509 133.548L50.8569 130.886C50.915 130.381 51.3425 130 51.8507 130H108.094Z" fill="#99E1A9"/>
<path d="M90.7689 191.461C100.394 191.461 108.197 183.505 108.197 173.689C108.197 163.874 100.394 155.917 90.7689 155.917C81.1436 155.917 73.3408 163.874 73.3408 173.689C73.3408 183.505 81.1436 191.461 90.7689 191.461Z" fill="#573240"/>
<path d="M87.6897 155.917C78.0644 155.917 70.2612 163.874 70.2612 173.689C70.2612 183.505 78.0644 191.461 87.6897 191.461C97.315 191.461 105.118 183.505 105.118 173.689C105.118 163.874 97.315 155.917 87.6897 155.917ZM87.6897 179.805C84.4493 179.805 81.8229 177.126 81.8229 173.822C81.8229 170.518 84.4493 167.839 87.6897 167.839C90.9296 167.839 93.5566 170.518 93.5566 173.822C93.5566 177.126 90.9296 179.805 87.6897 179.805Z" fill="#A9D8D5"/>
<path d="M90.2628 159.056H88.7752C88.6092 159.056 88.4747 158.922 88.4747 158.756V158.735C88.4747 158.569 88.6092 158.435 88.7752 158.435H90.2628C90.4288 158.435 90.5633 158.569 90.5633 158.735V158.756C90.5633 158.922 90.4288 159.056 90.2628 159.056Z" fill="white"/>
<path d="M92.6609 165.415H91.1732C91.0072 165.415 90.8727 165.28 90.8727 165.114V165.094C90.8727 164.928 91.0072 164.793 91.1732 164.793H92.6609C92.8268 164.793 92.9614 164.928 92.9614 165.094V165.114C92.9614 165.28 92.8268 165.415 92.6609 165.415Z" fill="#573240"/>
<path d="M80.2472 161.623L78.9894 162.418C78.849 162.506 78.6634 162.464 78.5749 162.324L78.5639 162.306C78.4752 162.166 78.5172 161.981 78.6575 161.892L79.9154 161.098C80.0557 161.009 80.2413 161.051 80.3299 161.191L80.3409 161.209C80.4295 161.349 80.3876 161.535 80.2472 161.623Z" fill="white"/>
<path d="M99.6219 164.65L98.8101 165.897C98.7195 166.036 98.5334 166.075 98.3944 165.985L98.3771 165.974C98.2381 165.883 98.1987 165.697 98.2893 165.558L99.1011 164.311C99.1917 164.172 99.3778 164.133 99.5169 164.223L99.5341 164.235C99.6732 164.325 99.7125 164.511 99.6219 164.65Z" fill="white"/>
<path d="M87.1828 164.472L85.9249 165.267C85.7845 165.355 85.599 165.313 85.5104 165.173L85.4994 165.156C85.4108 165.015 85.4527 164.83 85.593 164.741L86.8509 163.947C86.9912 163.858 87.1768 163.9 87.2654 164.041L87.2764 164.058C87.365 164.198 87.3231 164.384 87.1828 164.472Z" fill="white"/>
<path d="M84.0111 160.344L83.1439 159.135C83.0471 159 83.078 158.812 83.2129 158.715L83.2296 158.704C83.3644 158.607 83.5522 158.638 83.6489 158.773L84.5162 159.981C84.6129 160.116 84.582 160.304 84.4472 160.401L84.4304 160.413C84.2956 160.509 84.1078 160.478 84.0111 160.344Z" fill="#573240"/>
<path d="M96.0537 164.979L95.1864 163.77C95.0897 163.635 95.1206 163.447 95.2554 163.351L95.2722 163.339C95.407 163.242 95.5948 163.273 95.6915 163.408L96.5587 164.616C96.6555 164.751 96.6246 164.939 96.4897 165.036L96.473 165.048C96.3382 165.144 96.1504 165.113 96.0537 164.979Z" fill="#FF6E00"/>
<path d="M77.3651 165.449L76.2084 164.513C76.0794 164.409 76.0594 164.22 76.1637 164.091L76.1766 164.075C76.281 163.946 76.4702 163.926 76.5992 164.03L77.7559 164.966C77.8849 165.07 77.905 165.259 77.8006 165.388L77.7877 165.404C77.6833 165.533 77.4942 165.553 77.3651 165.449Z" fill="#FF6E00"/>
<path d="M95.3106 161.219L94.1539 160.284C94.0249 160.179 94.0048 159.99 94.1092 159.861L94.1221 159.845C94.2265 159.716 94.4157 159.696 94.5448 159.8L95.7015 160.736C95.8305 160.84 95.8506 161.029 95.7462 161.158L95.7333 161.174C95.6289 161.303 95.4396 161.323 95.3106 161.219Z" fill="white"/>
<path d="M81.71 165.087L81.9633 163.621C81.9916 163.458 82.147 163.348 82.3106 163.376L82.3308 163.38C82.4944 163.408 82.604 163.564 82.5758 163.727L82.3225 165.193C82.2942 165.357 82.1388 165.466 81.9752 165.438L81.955 165.435C81.7914 165.406 81.6818 165.251 81.71 165.087Z" fill="#F1B104"/>
<path d="M79.9044 170.271L80.1577 168.805C80.186 168.641 80.3415 168.532 80.505 168.56L80.5252 168.564C80.6888 168.592 80.7985 168.747 80.7702 168.911L80.5169 170.377C80.4887 170.54 80.3332 170.65 80.1696 170.622L80.1494 170.618C79.9858 170.59 79.8762 170.435 79.9044 170.271Z" fill="#F1B104"/>
<path d="M86.5876 161.537L87.7561 160.617C87.8865 160.514 88.0754 160.536 88.1782 160.667L88.1909 160.683C88.2936 160.813 88.2712 161.002 88.1408 161.105L86.9723 162.026C86.8419 162.128 86.653 162.106 86.5503 161.976L86.5375 161.959C86.4348 161.829 86.4572 161.64 86.5876 161.537Z" fill="#FF6E00"/>
<path d="M91.2561 162.217L91.5093 160.751C91.5376 160.587 91.6931 160.478 91.8566 160.506L91.8769 160.509C92.0404 160.538 92.1501 160.693 92.1218 160.857L91.8685 162.323C91.8403 162.486 91.6848 162.596 91.5212 162.567L91.501 162.564C91.3374 162.536 91.2278 162.38 91.2561 162.217Z" fill="#F1B104"/>
<path d="M98.2051 183.195L99.0901 181.999C99.1888 181.866 99.377 181.837 99.5104 181.936L99.5269 181.948C99.6603 182.047 99.6884 182.235 99.5897 182.369L98.7047 183.565C98.606 183.698 98.4178 183.726 98.2844 183.627L98.2679 183.615C98.1345 183.516 98.1064 183.328 98.2051 183.195Z" fill="white"/>
<path d="M92.3597 180.927L93.2447 179.731C93.3434 179.598 93.5316 179.569 93.665 179.668L93.6815 179.68C93.8149 179.779 93.843 179.967 93.7443 180.101L92.8593 181.297C92.7606 181.43 92.5724 181.458 92.439 181.359L92.4225 181.347C92.2891 181.248 92.2609 181.06 92.3597 180.927Z" fill="#573240"/>
<path d="M102.1 173.617L102.21 172.134C102.222 171.968 102.366 171.844 102.532 171.856L102.552 171.858C102.718 171.87 102.842 172.014 102.83 172.179L102.72 173.663C102.708 173.829 102.564 173.953 102.398 173.941L102.378 173.939C102.212 173.927 102.088 173.783 102.1 173.617Z" fill="white"/>
<path d="M93.8973 168.946L94.0071 167.463C94.0194 167.297 94.1635 167.173 94.329 167.185L94.3495 167.187C94.515 167.199 94.6392 167.343 94.627 167.509L94.5171 168.992C94.5049 169.158 94.3608 169.282 94.1953 169.27L94.1747 169.268C94.0093 169.256 93.885 169.112 93.8973 168.946Z" fill="white"/>
<path d="M89.0128 188.369L88.4937 186.975C88.4358 186.82 88.5148 186.646 88.6704 186.589L88.6896 186.581C88.8452 186.524 89.0182 186.603 89.0761 186.758L89.5953 188.152C89.6532 188.308 89.5741 188.481 89.4186 188.539L89.3993 188.546C89.2438 188.604 89.0708 188.525 89.0128 188.369Z" fill="white"/>
<path d="M95.6837 177.497L95.7935 176.014C95.8058 175.848 95.9499 175.724 96.1154 175.736L96.1359 175.738C96.3014 175.75 96.4256 175.894 96.4134 176.06L96.3035 177.543C96.2913 177.709 96.1472 177.833 95.9817 177.821L95.9612 177.819C95.7957 177.807 95.6715 177.663 95.6837 177.497Z" fill="white"/>
<path d="M100.889 177.404L102.377 177.426C102.543 177.428 102.675 177.565 102.673 177.731L102.673 177.751C102.67 177.917 102.534 178.05 102.368 178.047L100.88 178.025C100.714 178.023 100.582 177.886 100.584 177.72L100.585 177.7C100.587 177.534 100.723 177.401 100.889 177.404Z" fill="#573240"/>
<path d="M86.5245 182.46L88.012 182.482C88.178 182.485 88.3105 182.621 88.3081 182.787L88.3078 182.808C88.3053 182.973 88.1688 183.106 88.0029 183.104L86.5153 183.082C86.3494 183.079 86.2169 182.943 86.2193 182.777L86.2196 182.756C86.222 182.59 86.3586 182.458 86.5245 182.46Z" fill="#573240"/>
<path d="M89.9995 184.327L91.487 184.349C91.6529 184.351 91.7855 184.488 91.7831 184.654L91.7827 184.674C91.7803 184.84 91.6438 184.973 91.4778 184.97L89.9903 184.948C89.8244 184.946 89.6918 184.809 89.6942 184.643L89.6945 184.623C89.6971 184.457 89.8336 184.324 89.9995 184.327Z" fill="#FF6E00"/>
<path d="M100.739 169.025L102.179 168.651C102.34 168.61 102.504 168.706 102.546 168.867L102.551 168.887C102.593 169.047 102.496 169.211 102.335 169.253L100.895 169.626C100.735 169.668 100.571 169.571 100.529 169.411L100.524 169.391C100.482 169.23 100.579 169.066 100.739 169.025Z" fill="#FF6E00"/>
<path d="M95.6898 170.729L97.1299 170.356C97.2906 170.314 97.4546 170.411 97.4962 170.571L97.5014 170.591C97.543 170.752 97.4465 170.916 97.2859 170.957L95.8458 171.331C95.6851 171.372 95.5211 171.276 95.4795 171.115L95.4744 171.095C95.4327 170.935 95.5291 170.771 95.6898 170.729Z" fill="#FF6E00"/>
<path d="M93.4639 185.966L94.904 185.592C95.0647 185.551 95.2287 185.647 95.2703 185.808L95.2755 185.828C95.3171 185.988 95.2207 186.152 95.06 186.194L93.6199 186.567C93.4592 186.609 93.2952 186.512 93.2536 186.352L93.2485 186.332C93.2068 186.171 93.3033 186.007 93.4639 185.966Z" fill="white"/>
<path d="M98.4448 172.732L99.4725 173.808C99.5871 173.928 99.5828 174.118 99.4628 174.233L99.4479 174.247C99.3279 174.362 99.1377 174.357 99.023 174.237L97.9954 173.162C97.8807 173.042 97.885 172.851 98.0051 172.737L98.0199 172.723C98.14 172.608 98.3301 172.612 98.4448 172.732Z" fill="#F1B104"/>
<path d="M98.397 178.765L98.442 180.252C98.447 180.418 98.3166 180.556 98.1508 180.561L98.1302 180.562C97.9644 180.567 97.8258 180.436 97.8208 180.27L97.7757 178.783C97.7707 178.618 97.9011 178.479 98.067 178.474L98.0875 178.473C98.2534 178.468 98.392 178.599 98.397 178.765Z" fill="#FF6E00"/>
<path d="M95.074 182.113L96.1017 183.189C96.2164 183.309 96.212 183.499 96.092 183.614L96.0771 183.628C95.9571 183.743 95.7669 183.738 95.6523 183.618L94.6246 182.543C94.5099 182.422 94.5143 182.232 94.6343 182.118L94.6492 182.103C94.7691 181.989 94.9594 181.993 95.074 182.113Z" fill="#F1B104"/>
<path d="M74.4204 178.142L75.0754 179.477C75.1485 179.626 75.087 179.806 74.938 179.879L74.9195 179.888C74.7705 179.962 74.5904 179.9 74.5174 179.751L73.8623 178.415C73.7893 178.266 73.8508 178.086 73.9998 178.013L74.0183 178.004C74.1673 177.931 74.3473 177.993 74.4204 178.142Z" fill="white"/>
<path d="M79.1216 173.994L79.7767 175.33C79.8497 175.479 79.7882 175.659 79.6392 175.732L79.6207 175.741C79.4717 175.814 79.2917 175.752 79.2186 175.603L78.5636 174.267C78.4905 174.118 78.552 173.938 78.701 173.865L78.7195 173.856C78.8685 173.783 79.0486 173.845 79.1216 173.994Z" fill="#573240"/>
<path d="M81.1347 186.004L82.4017 186.784C82.543 186.871 82.5871 187.056 82.5001 187.197L82.4893 187.215C82.4023 187.356 82.2173 187.4 82.0759 187.313L80.8089 186.533C80.6676 186.446 80.6235 186.261 80.7105 186.12L80.7213 186.102C80.8083 185.961 80.9933 185.917 81.1347 186.004Z" fill="white"/>
<path d="M74.5458 167.494L76.0226 167.674C76.1873 167.694 76.3046 167.844 76.2845 168.009L76.282 168.029C76.2619 168.194 76.1121 168.311 75.9474 168.291L74.4706 168.111C74.3059 168.091 74.1886 167.941 74.2087 167.776L74.2112 167.756C74.2312 167.591 74.381 167.474 74.5458 167.494Z" fill="white"/>
<path d="M80.6391 178.522L81.9061 179.302C82.0474 179.389 82.0915 179.574 82.0045 179.715L81.9937 179.733C81.9067 179.874 81.7217 179.918 81.5803 179.831L80.3133 179.052C80.172 178.965 80.1279 178.78 80.2149 178.638L80.2257 178.621C80.3127 178.479 80.4977 178.435 80.6391 178.522Z" fill="white"/>
<path d="M78.3285 183.188L77.6251 184.499C77.5466 184.645 77.3644 184.7 77.2182 184.622L77.2001 184.612C77.0538 184.533 76.9989 184.351 77.0774 184.205L77.7808 182.894C77.8593 182.748 78.0415 182.693 78.1877 182.771L78.2058 182.781C78.3521 182.86 78.407 183.042 78.3285 183.188Z" fill="#573240"/>
<path d="M77.188 170.335L76.4846 171.646C76.4061 171.792 76.2239 171.847 76.0777 171.768L76.0596 171.758C75.9133 171.68 75.8584 171.498 75.9369 171.352L76.6403 170.041C76.7188 169.894 76.901 169.84 77.0472 169.918L77.0653 169.928C77.2116 170.006 77.2665 170.188 77.188 170.335Z" fill="#FF6E00"/>
<path d="M85.8386 186.907L85.508 188.358C85.4711 188.52 85.31 188.621 85.1482 188.584L85.1281 188.58C84.9663 188.543 84.8651 188.382 84.9019 188.22L85.2326 186.769C85.2695 186.608 85.4306 186.506 85.5924 186.543L85.6125 186.548C85.7743 186.585 85.8755 186.746 85.8386 186.907Z" fill="#FF6E00"/>
<path d="M73.7258 172.242L73.3951 173.693C73.3582 173.854 73.1971 173.956 73.0353 173.919L73.0153 173.914C72.8535 173.877 72.7522 173.716 72.7891 173.554L73.1198 172.104C73.1567 171.942 73.3178 171.841 73.4796 171.878L73.4996 171.882C73.6614 171.919 73.7627 172.08 73.7258 172.242Z" fill="white"/>
<path d="M83.6011 183.165L82.1733 183.583C82.014 183.63 81.8471 183.539 81.8005 183.379L81.7947 183.36C81.7481 183.2 81.8394 183.033 81.9986 182.987L83.4264 182.569C83.5857 182.522 83.7525 182.613 83.7992 182.773L83.805 182.793C83.8516 182.952 83.7603 183.119 83.6011 183.165Z" fill="#F1B104"/>
<path d="M78.2662 180.349L76.925 179.705C76.7754 179.634 76.7123 179.454 76.7841 179.305L76.793 179.286C76.8648 179.136 77.0443 179.073 77.194 179.145L78.5352 179.789C78.6848 179.861 78.7479 180.04 78.6761 180.19L78.6672 180.208C78.5953 180.358 78.4158 180.421 78.2662 180.349Z" fill="#FF6E00"/>
<path d="M76.9349 175.175L74.9304 175.762L75.105 176.358L77.1095 175.771L76.9349 175.175Z" fill="#F1B104"/>
<path d="M51.5732 147.727C41.483 147.727 33.3031 156.069 33.3031 166.357C33.3031 176.647 41.483 184.989 51.5732 184.989C61.6634 184.989 69.8433 176.647 69.8433 166.357C69.8433 156.069 61.6634 147.727 51.5732 147.727ZM51.5732 172.142C48.5162 172.142 46.0375 169.615 46.0375 166.497C46.0375 163.379 48.5163 160.851 51.5732 160.851C54.6308 160.851 57.1095 163.379 57.1095 166.497C57.1095 169.615 54.6308 172.142 51.5732 172.142Z" fill="#573240"/>
<path d="M49.0978 147.727C39.0076 147.727 30.8277 156.069 30.8277 166.357C30.8277 176.647 39.0076 184.989 49.0978 184.989C59.188 184.989 67.3679 176.647 67.3679 166.357C67.3679 156.069 59.188 147.727 49.0978 147.727ZM49.0978 172.768C45.7016 172.768 42.9478 169.961 42.9478 166.497C42.9478 163.033 45.7016 160.225 49.0978 160.225C52.4946 160.225 55.2484 163.033 55.2484 166.497C55.2484 169.961 52.4946 172.768 49.0978 172.768Z" fill="#FF6E00"/>
<path d="M51.526 151.565H49.8951C49.7292 151.565 49.5947 151.43 49.5947 151.264V151.201C49.5947 151.035 49.7292 150.901 49.8951 150.901H51.5261C51.692 150.901 51.8266 151.035 51.8266 151.201V151.264C51.8265 151.43 51.692 151.565 51.526 151.565Z" fill="white"/>
<path d="M61.1608 165.333H59.5299C59.364 165.333 59.2294 165.199 59.2294 165.033V164.97C59.2294 164.804 59.364 164.669 59.5299 164.669H61.1608C61.3268 164.669 61.4613 164.804 61.4613 164.97V165.033C61.4613 165.199 61.3268 165.333 61.1608 165.333Z" fill="#A9D8D5"/>
<path d="M64.8401 163.323L63.2748 163.78C63.1155 163.827 62.9486 163.735 62.902 163.576L62.8843 163.515C62.8378 163.356 62.9292 163.189 63.0885 163.143L64.6539 162.685C64.8132 162.639 64.98 162.73 65.0266 162.889L65.0443 162.95C65.0908 163.109 64.9994 163.276 64.8401 163.323Z" fill="#573240"/>
<path d="M40.7945 164.74H39.1636C38.9976 164.74 38.8631 164.605 38.8631 164.439V164.376C38.8631 164.21 38.9976 164.076 39.1636 164.076H40.7945C40.9604 164.076 41.095 164.21 41.095 164.376V164.439C41.095 164.605 40.9604 164.74 40.7945 164.74Z" fill="white"/>
<path d="M58.4785 162.73L56.9099 162.284C56.7503 162.239 56.6577 162.072 56.7031 161.913L56.7204 161.852C56.7658 161.692 56.932 161.6 57.0916 161.645L58.6603 162.091C58.8199 162.137 58.9125 162.303 58.8671 162.463L58.8498 162.523C58.8043 162.683 58.6381 162.776 58.4785 162.73Z" fill="#F1B104"/>
<path d="M35.8666 160.225H34.2357C34.0697 160.225 33.9352 160.09 33.9352 159.925V159.861C33.9352 159.695 34.0697 159.561 34.2357 159.561H35.8666C36.0326 159.561 36.1671 159.695 36.1671 159.861V159.925C36.1671 160.09 36.0325 160.225 35.8666 160.225Z" fill="#F1B104"/>
<path d="M53.2936 157.898H51.6627C51.4968 157.898 51.3622 157.764 51.3622 157.598V157.534C51.3622 157.368 51.4968 157.234 51.6627 157.234H53.2936C53.4596 157.234 53.5941 157.368 53.5941 157.534V157.598C53.5941 157.764 53.4596 157.898 53.2936 157.898Z" fill="#573240"/>
<path d="M61.1062 156.209L59.6938 155.393C59.5501 155.31 59.5008 155.126 59.5838 154.983L59.6154 154.928C59.6983 154.784 59.8821 154.735 60.0259 154.818L61.4383 155.633C61.582 155.716 61.6312 155.9 61.5483 156.044L61.5167 156.099C61.4337 156.242 61.2499 156.291 61.1062 156.209Z" fill="#F6ACC1"/>
<path d="M41.6846 154.475L40.3056 155.346C40.1653 155.435 39.9797 155.393 39.8911 155.253L39.8574 155.199C39.7687 155.059 39.8107 154.873 39.951 154.785L41.33 153.914C41.4703 153.825 41.6559 153.867 41.7445 154.007L41.7782 154.061C41.8668 154.201 41.8249 154.387 41.6846 154.475Z" fill="white"/>
<path d="M62.2814 158.722L61.3915 160.088C61.3009 160.227 61.1148 160.267 60.9757 160.176L60.9228 160.142C60.7837 160.051 60.7444 159.865 60.8349 159.726L61.7249 158.359C61.8155 158.22 62.0016 158.181 62.1406 158.271L62.1936 158.306C62.3326 158.397 62.372 158.583 62.2814 158.722Z" fill="white"/>
<path d="M48.877 157.986L47.498 158.857C47.3577 158.946 47.1721 158.904 47.0835 158.764L47.0498 158.71C46.9611 158.57 47.0031 158.384 47.1434 158.296L48.5224 157.425C48.6627 157.336 48.8483 157.378 48.9368 157.518L48.9706 157.572C49.0592 157.712 49.0173 157.898 48.877 157.986Z" fill="white"/>
<path d="M44.3172 157.714L43.7534 156.183C43.696 156.028 43.7757 155.855 43.9314 155.797L43.9907 155.776C44.1464 155.718 44.3192 155.798 44.3766 155.954L44.9404 157.484C44.9977 157.64 44.918 157.812 44.7623 157.87L44.703 157.892C44.5473 157.949 44.3746 157.869 44.3172 157.714Z" fill="#F1B104"/>
<path d="M44.837 152.957L43.8863 151.632C43.7895 151.497 43.8204 151.309 43.9553 151.213L44.0066 151.176C44.1414 151.079 44.3292 151.11 44.4259 151.245L45.3766 152.57C45.4733 152.705 45.4425 152.893 45.3076 152.989L45.2563 153.026C45.1214 153.123 44.9337 153.092 44.837 152.957Z" fill="#573240"/>
<path d="M58.6707 158.754L57.72 157.429C57.6232 157.294 57.6541 157.106 57.789 157.01L57.8403 156.973C57.9751 156.876 58.1629 156.907 58.2596 157.042L59.2103 158.367C59.307 158.502 59.2762 158.69 59.1413 158.786L59.09 158.823C58.9551 158.92 58.7674 158.889 58.6707 158.754Z" fill="#573240"/>
<path d="M37.7394 157.883L36.4713 156.857C36.3423 156.753 36.3223 156.564 36.4266 156.435L36.4664 156.386C36.5708 156.257 36.7599 156.237 36.8889 156.341L38.157 157.367C38.286 157.471 38.306 157.66 38.2017 157.789L38.1619 157.838C38.0576 157.967 37.8684 157.987 37.7394 157.883Z" fill="#A9D8D5"/>
<path d="M56.9151 153.889L55.6471 152.863C55.5181 152.759 55.4981 152.57 55.6024 152.441L55.6421 152.391C55.7465 152.262 55.9357 152.242 56.0648 152.347L57.3328 153.372C57.4619 153.477 57.4818 153.666 57.3775 153.795L57.3378 153.844C57.2334 153.973 57.0442 153.993 56.9151 153.889Z" fill="#F1B104"/>
<path d="M34.9536 164.882L33.9442 163.601C33.8415 163.471 33.8639 163.282 33.9943 163.179L34.0439 163.14C34.1742 163.037 34.3632 163.06 34.4659 163.19L35.4753 164.471C35.578 164.601 35.5556 164.79 35.4253 164.893L35.3756 164.932C35.2452 165.035 35.0563 165.012 34.9536 164.882Z" fill="#A9D8D5"/>
<path d="M40.6216 159.786L40.8993 158.179C40.9276 158.016 41.083 157.906 41.2466 157.934L41.3088 157.945C41.4724 157.973 41.582 158.129 41.5538 158.292L41.2761 159.9C41.2479 160.063 41.0924 160.173 40.9288 160.144L40.8666 160.134C40.703 160.105 40.5934 159.95 40.6216 159.786Z" fill="#F6ACC1"/>
<path d="M46.9168 154.874L48.1977 153.864C48.3281 153.762 48.517 153.784 48.6198 153.915L48.6588 153.964C48.7615 154.095 48.7391 154.283 48.6088 154.386L47.3278 155.396C47.1975 155.498 47.0085 155.476 46.9058 155.346L46.8667 155.296C46.764 155.166 46.7864 154.977 46.9168 154.874Z" fill="#A9D8D5"/>
<path d="M36.9518 162.304L38.2327 161.294C38.3631 161.191 38.552 161.214 38.6548 161.344L38.6938 161.394C38.7965 161.524 38.7741 161.713 38.6438 161.816L37.3628 162.825C37.2325 162.928 37.0435 162.906 36.9408 162.775L36.9017 162.726C36.799 162.595 36.8214 162.406 36.9518 162.304Z" fill="#573240"/>
<path d="M52.5633 154.962L52.841 153.355C52.8693 153.192 53.0247 153.082 53.1883 153.11L53.2505 153.121C53.4141 153.149 53.5238 153.305 53.4955 153.468L53.2178 155.075C53.1896 155.239 53.0341 155.348 52.8705 155.32L52.8083 155.309C52.6447 155.281 52.5351 155.126 52.5633 154.962Z" fill="#F6ACC1"/>
<path d="M54.4865 159.945L55.5721 158.728C55.6826 158.604 55.8725 158.593 55.9964 158.704L56.0435 158.746C56.1674 158.856 56.1782 159.046 56.0677 159.17L54.9821 160.387C54.8716 160.511 54.6817 160.522 54.5578 160.411L54.5107 160.369C54.3868 160.259 54.376 160.069 54.4865 159.945Z" fill="#A9D8D5"/>
<path d="M46.9249 181.447L48.5556 181.472C48.7215 181.475 48.854 181.611 48.8515 181.777L48.8505 181.84C48.848 182.006 48.7114 182.139 48.5455 182.136L46.9148 182.111C46.7489 182.109 46.6164 181.972 46.6189 181.806L46.6199 181.743C46.6225 181.577 46.759 181.445 46.9249 181.447Z" fill="white"/>
<path d="M37.5013 167.533L39.132 167.558C39.2979 167.561 39.4304 167.697 39.4278 167.863L39.4269 167.926C39.4243 168.092 39.2877 168.225 39.1218 168.222L37.4912 168.197C37.3252 168.195 37.1928 168.058 37.1953 167.892L37.1963 167.829C37.1988 167.663 37.3353 167.531 37.5013 167.533Z" fill="#A9D8D5"/>
<path d="M33.7917 169.488L35.3639 169.054C35.5239 169.01 35.6893 169.104 35.7335 169.264L35.7503 169.325C35.7944 169.485 35.7004 169.65 35.5404 169.694L33.9682 170.128C33.8082 170.172 33.6428 170.078 33.5987 169.918L33.5819 169.857C33.5378 169.697 33.6317 169.532 33.7917 169.488Z" fill="#573240"/>
<path d="M57.8559 168.438L59.4866 168.462C59.6525 168.465 59.785 168.602 59.7824 168.767L59.7815 168.831C59.7789 168.997 59.6424 169.129 59.4764 169.126L57.8458 169.102C57.6799 169.099 57.5474 168.963 57.5499 168.797L57.5509 168.733C57.5534 168.568 57.6899 168.435 57.8559 168.438Z" fill="white"/>
<path d="M40.1433 170.177L41.705 170.647C41.8639 170.695 41.9539 170.862 41.9061 171.021L41.8878 171.082C41.84 171.241 41.6724 171.331 41.5135 171.283L39.9518 170.813C39.7929 170.765 39.7028 170.598 39.7507 170.439L39.769 170.378C39.8168 170.219 39.9844 170.129 40.1433 170.177Z" fill="#F1B104"/>
<path d="M62.7145 173.027L64.3452 173.052C64.5111 173.054 64.6436 173.191 64.641 173.357L64.6401 173.42C64.6375 173.586 64.5009 173.718 64.335 173.716L62.7044 173.691C62.5384 173.688 62.406 173.552 62.4085 173.386L62.4095 173.323C62.412 173.157 62.5486 173.024 62.7145 173.027Z" fill="#F1B104"/>
<path d="M45.2542 175.088L46.8849 175.113C47.0508 175.115 47.1832 175.252 47.1807 175.418L47.1797 175.481C47.1772 175.647 47.0406 175.779 46.8747 175.777L45.244 175.752C45.0781 175.749 44.9457 175.613 44.9482 175.447L44.9492 175.384C44.9517 175.218 45.0882 175.085 45.2542 175.088Z" fill="#573240"/>
<path d="M37.4165 176.658L38.8163 177.495C38.9587 177.58 39.0051 177.764 38.92 177.907L38.8876 177.961C38.8024 178.104 38.6179 178.15 38.4754 178.065L37.0756 177.228C36.9332 177.143 36.8868 176.958 36.9719 176.816L37.0043 176.762C37.0895 176.619 37.274 176.573 37.4165 176.658Z" fill="#F6ACC1"/>
<path d="M56.8096 178.687L58.2017 177.837C58.3433 177.751 58.5283 177.796 58.6147 177.937L58.6476 177.991C58.7341 178.133 58.6893 178.318 58.5477 178.404L57.1556 179.254C57.0139 179.34 56.829 179.296 56.7425 179.154L56.7096 179.1C56.6232 178.958 56.6679 178.774 56.8096 178.687Z" fill="white"/>
<path d="M36.2798 174.127L37.1905 172.774C37.2832 172.637 37.4699 172.6 37.6076 172.693L37.66 172.728C37.7977 172.821 37.8342 173.007 37.7415 173.145L36.8308 174.498C36.7382 174.636 36.5514 174.672 36.4138 174.579L36.3613 174.544C36.2237 174.451 36.1872 174.265 36.2798 174.127Z" fill="white"/>
<path d="M49.6713 175.067L51.0634 174.217C51.2051 174.131 51.39 174.175 51.4765 174.317L51.5094 174.371C51.5958 174.513 51.5511 174.698 51.4094 174.784L50.0173 175.634C49.8757 175.72 49.6908 175.675 49.6043 175.534L49.5714 175.48C49.4849 175.338 49.5297 175.153 49.6713 175.067Z" fill="white"/>
<path d="M54.2271 175.409L54.7675 176.948C54.8225 177.104 54.7401 177.276 54.5835 177.331L54.5239 177.352C54.3674 177.407 54.1958 177.324 54.1408 177.168L53.6004 175.629C53.5454 175.473 53.6278 175.301 53.7844 175.246L53.844 175.225C54.0006 175.17 54.1721 175.253 54.2271 175.409Z" fill="#F1B104"/>
<path d="M53.6341 180.157L54.5645 181.497C54.6591 181.633 54.6254 181.82 54.4891 181.915L54.4372 181.951C54.3009 182.046 54.1137 182.012 54.019 181.876L53.0887 180.536C52.994 180.4 53.0277 180.213 53.164 180.118L53.2159 180.082C53.3522 179.987 53.5394 180.021 53.6341 180.157Z" fill="#573240"/>
<path d="M39.8909 174.15L40.8212 175.489C40.9159 175.625 40.8821 175.813 40.7459 175.907L40.694 175.943C40.5577 176.038 40.3704 176.004 40.2758 175.868L39.3454 174.529C39.2507 174.392 39.2845 174.205 39.4208 174.11L39.4726 174.074C39.609 173.98 39.7962 174.013 39.8909 174.15Z" fill="#573240"/>
<path d="M60.8062 175.34L62.0585 176.385C62.1859 176.491 62.203 176.681 62.0967 176.808L62.0562 176.857C61.9499 176.984 61.7605 177.001 61.633 176.895L60.3807 175.85C60.2533 175.744 60.2362 175.554 60.3425 175.427L60.3829 175.378C60.4893 175.251 60.6787 175.234 60.8062 175.34Z" fill="#A9D8D5"/>
<path d="M41.5719 179.041L42.8242 180.086C42.9516 180.192 42.9687 180.382 42.8624 180.509L42.822 180.558C42.7156 180.685 42.5262 180.702 42.3987 180.596L41.1464 179.551C41.019 179.445 41.0019 179.255 41.1082 179.128L41.1487 179.08C41.255 178.952 41.4445 178.935 41.5719 179.041Z" fill="#F1B104"/>
<path d="M63.6987 168.384L64.6884 169.681C64.7891 169.813 64.7639 170.001 64.632 170.102L64.5818 170.14C64.4499 170.241 64.2613 170.216 64.1606 170.084L63.1709 168.787C63.0702 168.655 63.0955 168.467 63.2273 168.366L63.2775 168.328C63.4093 168.227 63.598 168.252 63.6987 168.384Z" fill="#A9D8D5"/>
<path d="M57.9532 173.393L57.651 174.996C57.6203 175.159 57.4631 175.266 57.3 175.235L57.238 175.223C57.0749 175.193 56.9676 175.036 56.9983 174.872L57.3005 173.27C57.3313 173.107 57.4884 172.999 57.6515 173.03L57.7136 173.042C57.8767 173.073 57.984 173.23 57.9532 173.393Z" fill="#F6ACC1"/>
<path d="M51.5842 178.209L50.2879 179.199C50.156 179.299 49.9675 179.274 49.8667 179.142L49.8284 179.092C49.7277 178.96 49.753 178.771 49.8849 178.671L51.1811 177.681C51.313 177.58 51.5016 177.606 51.6023 177.737L51.6406 177.788C51.7414 177.92 51.7161 178.108 51.5842 178.209Z" fill="#A9D8D5"/>
<path d="M61.6611 170.932L60.3649 171.922C60.233 172.022 60.0444 171.997 59.9437 171.865L59.9054 171.815C59.8046 171.683 59.8299 171.495 59.9618 171.394L61.258 170.404C61.39 170.303 61.5785 170.329 61.6792 170.461L61.7176 170.511C61.8183 170.643 61.793 170.831 61.6611 170.932Z" fill="#573240"/>
<path d="M45.9399 178.035L45.6377 179.637C45.607 179.8 45.4498 179.908 45.2867 179.877L45.2247 179.865C45.0616 179.834 44.9543 179.677 44.985 179.514L45.2872 177.911C45.3179 177.748 45.4751 177.641 45.6382 177.672L45.7002 177.684C45.8633 177.714 45.9706 177.871 45.9399 178.035Z" fill="#F6ACC1"/>
<path d="M44.0925 173.023L42.9885 174.223C42.8761 174.346 42.6861 174.353 42.5639 174.241L42.5174 174.198C42.3953 174.086 42.3873 173.896 42.4997 173.774L43.6037 172.574C43.7161 172.451 43.9062 172.443 44.0283 172.556L44.0748 172.599C44.1969 172.711 44.2049 172.901 44.0925 173.023Z" fill="#A9D8D5"/>
<path d="M106.727 131.749L106.678 132.172H50.7088L50.7577 131.749H106.727Z" fill="#FDE5E3"/>
<path d="M105.742 136.877C105.666 137.022 105.583 137.163 105.495 137.3H51.4276C51.3389 137.163 51.2556 137.022 51.1789 136.877H105.742Z" fill="#FDE5E3"/>
<path d="M106.433 134.313L106.384 134.736H50.5374C50.5241 134.596 50.5162 134.456 50.5138 134.313H106.433Z" fill="#FDE5E3"/>
<path d="M112.394 166.678H89.4915V192.32H112.394V166.678Z" fill="#49955A"/>
<path d="M89.4916 166.678H27V192.32H89.4916V166.678Z" fill="#64AE74"/>
<path d="M89.5193 169.031H27V169.454H89.5193V169.031Z" fill="#64AE74"/>
<path d="M89.4916 171.595H27V172.018H89.4916V171.595Z" fill="#64AE74"/>
<path d="M89.4916 174.16H27V174.582H89.4916V174.16Z" fill="#64AE74"/>
<path d="M89.4916 176.724H27V177.146H89.4916V176.724Z" fill="#64AE74"/>
<path d="M89.4916 179.288H27V179.711H89.4916V179.288Z" fill="#64AE74"/>
<path d="M89.4916 181.852H27V182.275H89.4916V181.852Z" fill="#64AE74"/>
<path d="M89.4916 186.981H27V187.403H89.4916V186.981Z" fill="#64AE74"/>
<path d="M89.4916 184.416H27V184.839H89.4916V184.416Z" fill="#64AE74"/>
<path d="M89.4916 189.545H27V189.967H89.4916V189.545Z" fill="#64AE74"/>
<path d="M112.393 169.031H89.5191V169.454H112.393V169.031Z" fill="#64AE74"/>
<path d="M112.394 171.595H89.4915V172.018H112.394V171.595Z" fill="#64AE74"/>
<path d="M112.394 174.16H89.4915V174.582H112.394V174.16Z" fill="#64AE74"/>
<path d="M112.394 176.724H89.4915V177.146H112.394V176.724Z" fill="#64AE74"/>
<path d="M112.394 179.288H89.4915V179.711H112.394V179.288Z" fill="#64AE74"/>
<path d="M112.394 181.852H89.4915V182.275H112.394V181.852Z" fill="#64AE74"/>
<path d="M112.394 186.981H89.4915V187.403H112.394V186.981Z" fill="#64AE74"/>
<path d="M112.394 184.416H89.4915V184.839H112.394V184.416Z" fill="#64AE74"/>
<path d="M112.394 189.545H89.4915V189.967H112.394V189.545Z" fill="#64AE74"/>
<path d="M139.626 144.562L134.183 191.919H107.147L101.704 144.562H139.626Z" fill="white"/>
<path d="M139.626 144.562L134.183 191.919H128.293L133.528 146.373H101.913L101.704 144.562H139.626Z" fill="#E0F1F0"/>
<path d="M142.561 144.562H98.7693L99.1165 142.625C99.265 141.798 99.9847 141.196 100.825 141.196H101.576L102.127 139.094C102.514 137.618 103.848 136.588 105.375 136.588H135.956C137.483 136.588 138.816 137.618 139.203 139.094L139.754 141.196H140.506C141.346 141.196 142.066 141.798 142.214 142.625L142.561 144.562Z" fill="#573240"/>
<path d="M107.148 191.919H134.183" stroke="#573240" stroke-width="0.301886" stroke-miterlimit="10" stroke-linecap="round"/>
<path d="M119.632 174.099C124.317 174.099 128.115 170.044 128.115 165.043C128.115 160.041 124.317 155.986 119.632 155.986C114.947 155.986 111.149 160.041 111.149 165.043C111.149 170.044 114.947 174.099 119.632 174.099Z" fill="#A9D8D5"/>
<path d="M120.957 162.469L117.923 167.128C117.763 167.374 117.408 167.389 117.227 167.159C116.464 166.188 116.444 164.652 117.27 163.385C118.095 162.117 119.507 161.515 120.703 161.82C120.988 161.892 121.117 162.223 120.957 162.469Z" fill="#573240"/>
<path d="M122.068 166.51C121.251 167.764 119.858 168.368 118.67 168.084C118.383 168.015 118.251 167.681 118.412 167.434L121.434 162.793C121.596 162.545 121.955 162.53 122.134 162.765C122.873 163.737 122.885 165.255 122.068 166.51Z" fill="#573240"/>
</svg>
